<?xml version="1.0" encoding="UTF-8"?>
<svg xmlns="http://www.w3.org/2000/svg" xmlns:xlink="http://www.w3.org/1999/xlink" width="300pt" height="120pt" viewBox="0 0 256 140" version="1.1">
<g id="surface1">
<path style=" stroke:none;fill-rule:nonzero;fill:rgb(80%,0%,0%);fill-opacity:1;" d="M 109.558594 117.160156 C 109.558594 117.160156 120.84375 115.65625 120.84375 92.984375 C 120.84375 70.316406 107.171875 68.210938 107.171875 68.210938 L 82.539062 68.210938 L 82.539062 139.730469 L 94.917969 139.730469 L 94.917969 122.476562 L 105.625 139.730469 L 123.9375 139.730469 Z M 104.785156 102.515625 L 94.917969 102.515625 L 94.917969 86.164062 L 104.851562 86.164062 C 104.851562 86.164062 107.625 87.769531 107.625 94.289062 C 107.625 100.808594 104.785156 102.515625 104.785156 102.515625 Z M 151.40625 68.710938 L 138.832031 68.710938 C 129.871094 68.710938 126.839844 81.351562 126.839844 87.367188 L 126.839844 139.730469 L 139.414062 139.730469 L 139.414062 127.191406 L 151.214844 127.191406 L 151.214844 139.730469 L 163.402344 139.730469 L 163.402344 87.367188 C 163.402344 72.121094 154.503906 68.710938 151.40625 68.710938 Z M 151.214844 106.929688 L 139.347656 106.929688 L 139.347656 89.574219 C 139.347656 89.574219 139.347656 85.664062 143.28125 85.664062 L 147.601562 85.664062 C 151.085938 85.664062 151.148438 89.574219 151.148438 89.574219 L 151.148438 106.929688 Z M 169.140625 68.710938 L 182.230469 68.710938 L 182.230469 139.730469 L 169.140625 139.730469 Z M 200.609375 121.371094 L 200.609375 68.710938 L 187.582031 68.710938 L 187.582031 139.730469 L 218.210938 139.730469 L 218.210938 121.371094 Z M 222.53125 121.574219 L 222.53125 139.730469 L 243.621094 139.730469 C 247.941406 139.730469 255.355469 134.8125 255.613281 121.070312 L 255.613281 114.050781 C 255.613281 102.3125 249.421875 95.394531 243.621094 95.394531 L 233.109375 95.394531 L 233.109375 86.96875 L 253.9375 86.96875 L 253.9375 68.710938 L 233.945312 68.710938 C 228.789062 68.710938 221.886719 75.332031 221.886719 87.667969 L 221.886719 93.988281 C 221.886719 106.328125 228.722656 112.644531 233.945312 112.644531 C 248.457031 112.746094 230.464844 112.644531 243.878906 112.644531 L 243.878906 121.472656 Z M 222.53125 121.574219 "/>
<path style=" stroke:none;fill-rule:nonzero;fill:rgb(80%,0%,0%);fill-opacity:1;" d="M 4.515625 139.628906 L 55.457031 139.628906 C 55.457031 139.628906 45.71875 70.515625 77.960938 42.53125 C 84.988281 37.214844 107.367188 17.351562 143.992188 59.484375 C 145.152344 57.976562 146.25 56.773438 146.25 56.773438 C 146.25 56.773438 112.71875 4.714844 75.382812 10.53125 C 56.617188 13.140625 33.53125 39.722656 19.988281 74.828125 C 6.449219 109.9375 4.515625 139.628906 4.515625 139.628906 Z M 110.652344 16.148438 L 110.910156 9.429688 C 110.332031 8.925781 108.71875 7.722656 104.65625 5.917969 L 104.398438 12.539062 C 106.527344 13.640625 108.589844 14.84375 110.652344 16.148438 Z M 104.527344 37.414062 L 104.269531 43.734375 C 106.398438 43.835938 108.527344 44.234375 110.652344 44.9375 L 110.910156 38.71875 C 108.71875 38.015625 106.589844 37.617188 104.527344 37.414062 Z M 80.667969 6.117188 L 81.3125 6.117188 L 80.023438 0 C 78.023438 0 75.960938 0.199219 73.832031 0.601562 L 75.058594 6.519531 C 76.929688 6.21875 78.800781 6.117188 80.667969 6.117188 Z M 83.765625 43.03125 L 85.246094 49.953125 C 87.117188 48.550781 88.988281 47.34375 90.859375 46.441406 L 89.4375 39.820312 C 87.246094 40.824219 85.375 41.929688 83.765625 43.03125 Z M 54.488281 16.652344 L 51.585938 9.730469 C 49.976562 11.035156 48.296875 12.4375 46.558594 14.042969 L 49.523438 21.066406 C 51.199219 19.460938 52.8125 17.957031 54.488281 16.652344 Z M 67.707031 61.789062 L 70.804688 69.011719 C 71.898438 66.503906 73.1875 64.195312 74.609375 61.890625 L 71.707031 55.070312 C 70.222656 57.175781 68.867188 59.484375 67.707031 61.789062 Z M 58.359375 94.089844 L 63.582031 100.507812 C 63.839844 96.597656 64.289062 92.683594 64.933594 88.773438 L 60.292969 83.054688 C 59.453125 86.765625 58.875 90.476562 58.359375 94.089844 Z M 30.113281 46.441406 L 25.535156 40.222656 C 23.859375 42.730469 22.246094 45.238281 20.765625 47.746094 L 25.730469 54.367188 C 27.082031 51.660156 28.566406 48.949219 30.113281 46.441406 Z M 10.640625 91.28125 L 3.222656 87.066406 C 2 91.378906 0.644531 96.394531 0 99.105469 L 7.414062 103.316406 C 8.253906 99.90625 9.609375 94.992188 10.640625 91.28125 Z M 57.390625 119.566406 C 57.519531 124.882812 57.84375 129.195312 58.164062 132.207031 L 65.902344 136.519531 C 65.320312 132.605469 64.742188 128.195312 64.355469 123.480469 Z M 57.390625 119.566406 "/>
</g>
</svg>
